<?xml version="1.0" encoding="UTF-8"?>
<svg xmlns="http://www.w3.org/2000/svg" xmlns:xlink="http://www.w3.org/1999/xlink" width="1400px" height="770px" viewBox="0 0 1200 660" version="1.1">
<defs>
<clipPath id="clip1">
  <path d="M 518 443 L 554.773438 443 L 554.773438 465 L 518 465 Z M 518 443 "/>
</clipPath>
<clipPath id="clip2">
  <path d="M 157.644531 464 L 554.773438 464 L 554.773438 465.675781 L 157.644531 465.675781 Z M 157.644531 464 "/>
</clipPath>
<clipPath id="clip3">
  <path d="M 157.644531 142.035156 L 554.773438 142.035156 L 554.773438 465.675781 L 157.644531 465.675781 Z M 157.644531 142.035156 "/>
</clipPath>
<filter id="alpha" filterUnits="objectBoundingBox" x="0%" y="0%" width="100%" height="100%">
  <feColorMatrix type="matrix" in="SourceGraphic" values="0 0 0 0 1 0 0 0 0 1 0 0 0 0 1 0 0 0 1 0"/>
</filter>
<mask id="mask0">
  <g filter="url(#alpha)">
<rect x="0" y="0" width="1200" height="660" style="fill:rgb(0%,0%,0%);fill-opacity:0.101961;stroke:none;"/>
  </g>
</mask>
<clipPath id="clip4">
  <rect x="0" y="0" width="1200" height="660"/>
</clipPath>
<g id="surface5" clip-path="url(#clip4)">
<path style=" stroke:none;fill-rule:nonzero;fill:rgb(0%,0%,0%);fill-opacity:1;" d="M 290.875 168.808594 C 290.875 168.808594 284.394531 186.808594 288.382812 189.578125 C 292.367188 192.347656 274.925781 214.96875 274.925781 214.96875 L 253.992188 209.429688 L 265.453125 190.503906 C 265.453125 190.503906 266.949219 171.578125 266.949219 168.808594 C 266.949219 166.039062 290.875 168.808594 290.875 168.808594 Z M 290.875 168.808594 "/>
</g>
<clipPath id="clip5">
  <path d="M 269 437 L 289 437 L 289 465.675781 L 269 465.675781 Z M 269 437 "/>
</clipPath>
<clipPath id="clip6">
  <path d="M 225 437 L 245 437 L 245 465.675781 L 225 465.675781 Z M 225 437 "/>
</clipPath>
<clipPath id="clip7">
  <path d="M 257 142.035156 L 298 142.035156 L 298 174 L 257 174 Z M 257 142.035156 "/>
</clipPath>
</defs>
<g id="surface1">
<path style=" stroke:none;fill-rule:nonzero;fill:rgb(1.568627%,22.745098%,48.235294%);fill-opacity:1;" d="M 146.339844 0 L 1052.953125 0 C 1064.664062 0 1074.152344 9.492188 1074.152344 21.199219 L 1074.152344 529.273438 C 1074.152344 540.980469 1064.664062 550.472656 1052.953125 550.472656 L 146.339844 550.472656 C 134.628906 550.472656 125.140625 540.980469 125.140625 529.273438 L 125.140625 21.199219 C 125.140625 9.492188 134.628906 0 146.339844 0 Z M 146.339844 0 "/>
<path style=" stroke:none;fill-rule:nonzero;fill:rgb(1.568627%,22.745098%,48.235294%);fill-opacity:1;" d="M 621.90625 530.683594 L 1074.859375 530.683594 L 1074.859375 638.800781 C 1074.859375 650.507812 1065.371094 660 1053.660156 660 L 621.90625 660 Z M 621.90625 530.683594 "/>
<path style=" stroke:none;fill-rule:nonzero;fill:rgb(98.823529%,98.823529%,98.823529%);fill-opacity:1;" d="M 125.847656 553.296875 C 125.847656 551.738281 127.109375 550.472656 128.671875 550.472656 L 624.027344 550.472656 C 625.585938 550.472656 626.851562 551.738281 626.851562 553.296875 L 626.851562 657.171875 C 626.851562 658.734375 625.585938 660 624.027344 660 L 128.671875 660 C 127.109375 660 125.847656 658.734375 125.847656 657.171875 Z M 125.847656 553.296875 "/>
<path style=" stroke:none;fill-rule:nonzero;fill:rgb(1.568627%,22.745098%,48.235294%);fill-opacity:1;" d="M 623.511719 550.132812 C 545.335938 541.355469 302.808594 550.132812 395.308594 550.132812 C 487.8125 550.132812 506.253906 652.335938 623.511719 659.644531 C 740.765625 666.953125 701.683594 558.90625 623.511719 550.132812 Z M 623.511719 550.132812 "/>
<path style=" stroke:none;fill-rule:nonzero;fill:rgb(14.901961%,28.235294%,48.627451%);fill-opacity:1;" d="M 493.296875 140.621094 C 493.296875 108.621094 467.195312 82.675781 435 82.675781 C 402.804688 82.675781 376.703125 108.621094 376.703125 140.621094 C 376.703125 172.621094 402.804688 198.566406 435 198.566406 C 467.195312 198.566406 493.296875 172.621094 493.296875 140.621094 Z M 493.296875 140.621094 "/>
<path style=" stroke:none;fill-rule:nonzero;fill:rgb(14.901961%,28.235294%,48.627451%);fill-opacity:1;" d="M 376.703125 224.359375 C 376.703125 205.820312 361.515625 190.792969 342.785156 190.792969 C 324.050781 190.792969 308.863281 205.820312 308.863281 224.359375 C 308.863281 242.894531 324.050781 257.921875 342.785156 257.921875 C 361.515625 257.921875 376.703125 242.894531 376.703125 224.359375 Z M 376.703125 224.359375 "/>
<path style=" stroke:none;fill-rule:nonzero;fill:rgb(15.686275%,18.823529%,29.019608%);fill-opacity:1;" d="M 489.765625 132.140625 C 489.765625 106.773438 469.042969 86.210938 443.480469 86.210938 C 417.917969 86.210938 397.195312 106.773438 397.195312 132.140625 C 397.195312 157.507812 417.917969 178.074219 443.480469 178.074219 C 469.042969 178.074219 489.765625 157.507812 489.765625 132.140625 Z M 489.765625 132.140625 "/>
<path style=" stroke:none;fill-rule:nonzero;fill:rgb(15.686275%,18.823529%,29.019608%);fill-opacity:1;" d="M 489.765625 132.140625 C 489.765625 106.773438 469.042969 86.210938 443.480469 86.210938 C 417.917969 86.210938 397.195312 106.773438 397.195312 132.140625 C 397.195312 157.507812 417.917969 178.074219 443.480469 178.074219 C 469.042969 178.074219 489.765625 157.507812 489.765625 132.140625 Z M 489.765625 132.140625 "/>
<path style=" stroke:none;fill-rule:nonzero;fill:rgb(15.686275%,18.823529%,29.019608%);fill-opacity:1;" d="M 780.191406 591.808594 C 780.191406 573.660156 765.957031 558.949219 748.394531 558.949219 C 730.832031 558.949219 716.59375 573.660156 716.59375 591.808594 C 716.59375 609.957031 730.832031 624.667969 748.394531 624.667969 C 765.957031 624.667969 780.191406 609.957031 780.191406 591.808594 Z M 780.191406 591.808594 "/>
<path style=" stroke:none;fill-rule:nonzero;fill:rgb(78.823529%,79.607843%,81.960784%);fill-opacity:1;" d="M 799.273438 577.324219 C 799.273438 585.128906 792.945312 591.457031 785.140625 591.457031 C 777.332031 591.457031 771.007812 585.128906 771.007812 577.324219 C 771.007812 569.519531 777.332031 563.191406 785.140625 563.191406 C 792.945312 563.191406 799.273438 569.519531 799.273438 577.324219 Z M 799.273438 577.324219 "/>
<path style=" stroke:none;fill-rule:nonzero;fill:rgb(15.686275%,18.823529%,29.019608%);fill-opacity:1;" d="M 450.191406 243.4375 C 450.191406 232.703125 441.335938 224.003906 430.40625 224.003906 C 419.480469 224.003906 410.621094 232.703125 410.621094 243.4375 C 410.621094 254.167969 419.480469 262.871094 430.40625 262.871094 C 441.335938 262.871094 450.191406 254.167969 450.191406 243.4375 Z M 450.191406 243.4375 "/>
<path style=" stroke:none;fill-rule:nonzero;fill:rgb(100%,100%,100%);fill-opacity:1;" d="M 440.300781 235.308594 C 440.300781 237.652344 438.402344 239.550781 436.058594 239.550781 C 433.71875 239.550781 431.820312 237.652344 431.820312 235.308594 C 431.820312 232.96875 433.71875 231.070312 436.058594 231.070312 C 438.402344 231.070312 440.300781 232.96875 440.300781 235.308594 Z M 440.300781 235.308594 "/>
<path style=" stroke:none;fill-rule:nonzero;fill:rgb(100%,100%,100%);fill-opacity:0.701961;" d="M 467.152344 132.496094 C 467.152344 135.421875 464.9375 137.792969 462.207031 137.792969 C 459.472656 137.792969 457.257812 135.421875 457.257812 132.496094 C 457.257812 129.566406 459.472656 127.195312 462.207031 127.195312 C 464.9375 127.195312 467.152344 129.566406 467.152344 132.496094 Z M 467.152344 132.496094 "/>
<path style=" stroke:none;fill-rule:nonzero;fill:rgb(100%,100%,100%);fill-opacity:0.501961;" d="M 471.390625 124.015625 C 471.390625 125.382812 470.285156 126.488281 468.917969 126.488281 C 467.550781 126.488281 466.445312 125.382812 466.445312 124.015625 C 466.445312 122.648438 467.550781 121.542969 468.917969 121.542969 C 470.285156 121.542969 471.390625 122.648438 471.390625 124.015625 Z M 471.390625 124.015625 "/>
<path style=" stroke:none;fill-rule:nonzero;fill:rgb(100%,100%,100%);fill-opacity:0.501961;" d="M 468.566406 110.234375 C 468.566406 119.210938 461.289062 126.488281 452.3125 126.488281 C 443.335938 126.488281 436.058594 119.210938 436.058594 110.234375 C 436.058594 101.257812 443.335938 93.984375 452.3125 93.984375 C 461.289062 93.984375 468.566406 101.257812 468.566406 110.234375 Z M 468.566406 110.234375 "/>
<path style=" stroke:none;fill-rule:nonzero;fill:rgb(100%,100%,100%);fill-opacity:0.501961;" d="M 468.566406 110.234375 C 468.566406 119.210938 461.289062 126.488281 452.3125 126.488281 C 443.335938 126.488281 436.058594 119.210938 436.058594 110.234375 C 436.058594 101.257812 443.335938 93.984375 452.3125 93.984375 C 461.289062 93.984375 468.566406 101.257812 468.566406 110.234375 Z M 468.566406 110.234375 "/>
<path style=" stroke:none;fill-rule:nonzero;fill:rgb(100%,100%,100%);fill-opacity:0.501961;" d="M 450.191406 110.234375 C 450.191406 114.136719 447.027344 117.300781 443.125 117.300781 C 439.222656 117.300781 436.058594 114.136719 436.058594 110.234375 C 436.058594 106.332031 439.222656 103.167969 443.125 103.167969 C 447.027344 103.167969 450.191406 106.332031 450.191406 110.234375 Z M 450.191406 110.234375 "/>
<path style=" stroke:none;fill-rule:nonzero;fill:rgb(100%,100%,100%);fill-opacity:0.501961;" d="M 811.523438 574.738281 C 807.964844 576.34375 803.78125 574.761719 802.175781 571.203125 C 800.574219 567.644531 802.15625 563.460938 805.714844 561.855469 C 809.269531 560.25 813.457031 561.835938 815.058594 565.390625 C 816.664062 568.949219 815.082031 573.132812 811.523438 574.738281 Z M 811.523438 574.738281 "/>
<path style=" stroke:none;fill-rule:nonzero;fill:rgb(100%,100%,100%);fill-opacity:0.301961;" d="M 746.023438 603.96875 C 747.300781 629.226562 727.082031 650.773438 700.859375 652.097656 C 674.636719 653.425781 652.347656 634.027344 651.070312 608.773438 C 649.792969 583.519531 670.015625 561.972656 696.234375 560.644531 C 722.457031 559.320312 744.746094 578.71875 746.023438 603.96875 Z M 746.023438 603.96875 "/>
<path style=" stroke:none;fill-rule:nonzero;fill:rgb(15.686275%,18.823529%,29.019608%);fill-opacity:1;" d="M 571.167969 213.230469 C 482.574219 233.234375 342.277344 374.515625 523.480469 502.765625 C 704.6875 631.015625 790.519531 376.457031 832.484375 551.34375 C 874.445312 726.234375 1207.933594 476.648438 925.945312 281.242188 C 976.625 187.300781 952.257812 137.753906 832.484375 53.890625 C 773.542969 38.492188 739.398438 24.3125 700.871094 112.1875 C 591.886719 98.9375 562.003906 119.722656 571.167969 213.230469 Z M 571.167969 213.230469 "/>
<path style=" stroke:none;fill-rule:nonzero;fill:rgb(12.54902%,49.803922%,94.901961%);fill-opacity:0.301961;" d="M 614.234375 193.800781 C 534.882812 213.929688 409.226562 356.089844 571.523438 485.136719 C 733.824219 614.183594 810.699219 358.042969 848.285156 534.015625 C 885.871094 709.988281 1184.558594 458.855469 932 262.234375 C 977.386719 167.710938 955.566406 117.851562 848.285156 33.46875 C 795.492188 17.976562 764.914062 3.710938 730.40625 92.128906 C 632.789062 78.796875 606.027344 99.710938 614.234375 193.800781 Z M 614.234375 193.800781 "/>
<path style=" stroke:none;fill-rule:nonzero;fill:rgb(18.431373%,18.039216%,25.490196%);fill-opacity:1;" d="M 536.320312 450.429688 C 530.8125 460.402344 519.121094 464.683594 519.121094 464.683594 C 519.121094 464.683594 516.363281 452.796875 521.871094 442.824219 C 527.378906 432.847656 539.070312 428.566406 539.070312 428.566406 C 539.070312 428.566406 541.832031 440.457031 536.320312 450.429688 Z M 536.320312 450.429688 "/>
<g clip-path="url(#clip1)" clip-rule="nonzero">
<path style=" stroke:none;fill-rule:nonzero;fill:rgb(42.352941%,38.823529%,100%);fill-opacity:1;" d="M 532.535156 447.148438 C 522.589844 452.988281 518.761719 464.59375 518.761719 464.59375 C 518.761719 464.59375 531.054688 466.722656 541 460.882812 C 550.945312 455.042969 554.773438 443.4375 554.773438 443.4375 C 554.773438 443.4375 542.480469 441.308594 532.535156 447.148438 Z M 532.535156 447.148438 "/>
</g>
<path style=" stroke:none;fill-rule:nonzero;fill:rgb(94.901961%,94.901961%,94.901961%);fill-opacity:1;" d="M 309.5625 157.570312 L 371.613281 157.570312 L 371.613281 158.4375 L 309.5625 158.4375 Z M 309.5625 157.570312 "/>
<path style=" stroke:none;fill-rule:nonzero;fill:rgb(94.901961%,94.901961%,94.901961%);fill-opacity:1;" d="M 326.402344 158.21875 L 327.289062 158.21875 L 327.289062 166.226562 L 326.402344 166.226562 Z M 326.402344 158.21875 "/>
<path style=" stroke:none;fill-rule:nonzero;fill:rgb(94.901961%,94.901961%,94.901961%);fill-opacity:1;" d="M 353.441406 158.21875 L 354.328125 158.21875 L 354.328125 166.226562 L 353.441406 166.226562 Z M 353.441406 158.21875 "/>
<path style=" stroke:none;fill-rule:nonzero;fill:rgb(94.901961%,94.901961%,94.901961%);fill-opacity:1;" d="M 278.089844 199.109375 L 340.144531 199.109375 L 340.144531 199.976562 L 278.089844 199.976562 Z M 278.089844 199.109375 "/>
<path style=" stroke:none;fill-rule:nonzero;fill:rgb(94.901961%,94.901961%,94.901961%);fill-opacity:1;" d="M 322.414062 191.320312 L 323.300781 191.320312 L 323.300781 199.324219 L 322.414062 199.324219 Z M 322.414062 191.320312 "/>
<path style=" stroke:none;fill-rule:nonzero;fill:rgb(94.901961%,94.901961%,94.901961%);fill-opacity:1;" d="M 295.378906 191.320312 L 296.265625 191.320312 L 296.265625 199.324219 L 295.378906 199.324219 Z M 295.378906 191.320312 "/>
<path style=" stroke:none;fill-rule:nonzero;fill:rgb(94.901961%,94.901961%,94.901961%);fill-opacity:1;" d="M 195.652344 218.582031 L 257.703125 218.582031 L 257.703125 219.445312 L 195.652344 219.445312 Z M 195.652344 218.582031 "/>
<path style=" stroke:none;fill-rule:nonzero;fill:rgb(94.901961%,94.901961%,94.901961%);fill-opacity:1;" d="M 239.972656 210.792969 L 240.859375 210.792969 L 240.859375 218.796875 L 239.972656 218.796875 Z M 239.972656 210.792969 "/>
<path style=" stroke:none;fill-rule:nonzero;fill:rgb(94.901961%,94.901961%,94.901961%);fill-opacity:1;" d="M 212.9375 210.792969 L 213.824219 210.792969 L 213.824219 218.796875 L 212.9375 218.796875 Z M 212.9375 210.792969 "/>
<path style=" stroke:none;fill-rule:nonzero;fill:rgb(94.901961%,94.901961%,94.901961%);fill-opacity:1;" d="M 201.855469 419.347656 L 263.910156 419.347656 L 263.910156 420.214844 L 201.855469 420.214844 Z M 201.855469 419.347656 "/>
<path style=" stroke:none;fill-rule:nonzero;fill:rgb(94.901961%,94.901961%,94.901961%);fill-opacity:1;" d="M 246.179688 411.5625 L 247.066406 411.5625 L 247.066406 419.566406 L 246.179688 419.566406 Z M 246.179688 411.5625 "/>
<path style=" stroke:none;fill-rule:nonzero;fill:rgb(94.901961%,94.901961%,94.901961%);fill-opacity:1;" d="M 219.140625 411.5625 L 220.03125 411.5625 L 220.03125 419.566406 L 219.140625 419.566406 Z M 219.140625 411.5625 "/>
<path style=" stroke:none;fill-rule:nonzero;fill:rgb(94.901961%,94.901961%,94.901961%);fill-opacity:1;" d="M 307.789062 280.457031 L 369.839844 280.457031 L 369.839844 281.320312 L 307.789062 281.320312 Z M 307.789062 280.457031 "/>
<path style=" stroke:none;fill-rule:nonzero;fill:rgb(94.901961%,94.901961%,94.901961%);fill-opacity:1;" d="M 352.109375 272.667969 L 352.996094 272.667969 L 352.996094 280.671875 L 352.109375 280.671875 Z M 352.109375 272.667969 "/>
<path style=" stroke:none;fill-rule:nonzero;fill:rgb(94.901961%,94.901961%,94.901961%);fill-opacity:1;" d="M 325.074219 272.667969 L 325.960938 272.667969 L 325.960938 280.671875 L 325.074219 280.671875 Z M 325.074219 272.667969 "/>
<path style=" stroke:none;fill-rule:nonzero;fill:rgb(94.901961%,94.901961%,94.901961%);fill-opacity:1;" d="M 288.285156 384.734375 L 350.335938 384.734375 L 350.335938 385.597656 L 288.285156 385.597656 Z M 288.285156 384.734375 "/>
<path style=" stroke:none;fill-rule:nonzero;fill:rgb(94.901961%,94.901961%,94.901961%);fill-opacity:1;" d="M 332.609375 376.945312 L 333.496094 376.945312 L 333.496094 384.949219 L 332.609375 384.949219 Z M 332.609375 376.945312 "/>
<path style=" stroke:none;fill-rule:nonzero;fill:rgb(94.901961%,94.901961%,94.901961%);fill-opacity:1;" d="M 305.570312 376.945312 L 306.457031 376.945312 L 306.457031 384.949219 L 305.570312 384.949219 Z M 305.570312 376.945312 "/>
<path style=" stroke:none;fill-rule:nonzero;fill:rgb(94.901961%,94.901961%,94.901961%);fill-opacity:1;" d="M 189.003906 353.148438 L 251.054688 353.148438 L 251.054688 354.011719 L 189.003906 354.011719 Z M 189.003906 353.148438 "/>
<path style=" stroke:none;fill-rule:nonzero;fill:rgb(94.901961%,94.901961%,94.901961%);fill-opacity:1;" d="M 233.328125 345.359375 L 234.210938 345.359375 L 234.210938 353.363281 L 233.328125 353.363281 Z M 233.328125 345.359375 "/>
<path style=" stroke:none;fill-rule:nonzero;fill:rgb(94.901961%,94.901961%,94.901961%);fill-opacity:1;" d="M 206.289062 345.359375 L 207.175781 345.359375 L 207.175781 353.363281 L 206.289062 353.363281 Z M 206.289062 345.359375 "/>
<path style=" stroke:none;fill-rule:nonzero;fill:rgb(18.431373%,18.039216%,25.490196%);fill-opacity:1;" d="M 394.300781 445.863281 L 499.25 445.863281 L 499.25 445.125 L 395.054688 445.125 L 395.054688 409.375 L 490.425781 409.375 L 495.0625 399.953125 L 494.378906 399.636719 L 489.953125 408.640625 L 394.300781 408.640625 Z M 394.300781 445.863281 "/>
<path style=" stroke:none;fill-rule:nonzero;fill:rgb(24.705882%,23.921569%,33.72549%);fill-opacity:1;" d="M 485.28125 463.921875 C 480.902344 463.921875 477.355469 460.457031 477.355469 456.183594 C 477.355469 451.90625 480.902344 448.441406 485.28125 448.441406 C 489.660156 448.441406 493.210938 451.90625 493.210938 456.183594 C 493.210938 460.457031 489.660156 463.921875 485.28125 463.921875 Z M 485.28125 463.921875 "/>
<path style=" stroke:none;fill-rule:nonzero;fill:rgb(24.705882%,23.921569%,33.72549%);fill-opacity:1;" d="M 407.136719 463.921875 C 402.757812 463.921875 399.207031 460.457031 399.207031 456.183594 C 399.207031 451.90625 402.757812 448.441406 407.136719 448.441406 C 411.515625 448.441406 415.0625 451.90625 415.0625 456.183594 C 415.0625 460.457031 411.515625 463.921875 407.136719 463.921875 Z M 407.136719 463.921875 "/>
<path style=" stroke:none;fill-rule:nonzero;fill:rgb(24.705882%,23.921569%,33.72549%);fill-opacity:1;" d="M 315.023438 296.601562 C 312.3125 296.601562 310.113281 294.457031 310.113281 291.8125 C 310.113281 289.164062 312.3125 287.019531 315.023438 287.019531 C 317.734375 287.019531 319.929688 289.164062 319.929688 291.8125 C 319.929688 294.457031 317.734375 296.601562 315.023438 296.601562 Z M 315.023438 296.601562 "/>
<path style=" stroke:none;fill-rule:nonzero;fill:rgb(18.431373%,18.039216%,25.490196%);fill-opacity:1;" d="M 383.074219 397.214844 L 501.039062 397.214844 L 526.566406 315.765625 L 356.789062 315.765625 L 356.945312 316.246094 Z M 500.480469 396.476562 L 383.628906 396.476562 L 357.820312 316.503906 L 525.542969 316.503906 Z M 500.480469 396.476562 "/>
<path style=" stroke:none;fill-rule:nonzero;fill:rgb(94.901961%,94.901961%,94.901961%);fill-opacity:1;" d="M 392.285156 392.976562 L 495.894531 392.976562 L 518.316406 320.742188 L 369.195312 320.742188 L 369.332031 321.167969 Z M 392.285156 392.976562 "/>
<path style=" stroke:none;fill-rule:nonzero;fill:rgb(18.431373%,18.039216%,25.490196%);fill-opacity:1;" d="M 354.675781 308.492188 L 355.402344 308.300781 L 350.421875 289.96875 L 321.441406 289.96875 L 321.441406 290.707031 L 349.839844 290.707031 Z M 354.675781 308.492188 "/>
<path style=" stroke:none;fill-rule:nonzero;fill:rgb(18.431373%,18.039216%,25.490196%);fill-opacity:1;" d="M 365.273438 340.457031 L 518.316406 340.457031 L 518.316406 341.195312 L 365.273438 341.195312 Z M 365.273438 340.457031 "/>
<path style=" stroke:none;fill-rule:nonzero;fill:rgb(18.431373%,18.039216%,25.490196%);fill-opacity:1;" d="M 374.039062 367.613281 L 509.804688 367.613281 L 509.804688 368.351562 L 374.039062 368.351562 Z M 374.039062 367.613281 "/>
<path style=" stroke:none;fill-rule:nonzero;fill:rgb(18.431373%,18.039216%,25.490196%);fill-opacity:1;" d="M 441.300781 316.136719 L 442.054688 316.136719 L 442.054688 396.847656 L 441.300781 396.847656 Z M 441.300781 316.136719 "/>
<path style=" stroke:none;fill-rule:nonzero;fill:rgb(18.431373%,18.039216%,25.490196%);fill-opacity:1;" d="M 407.496094 316.113281 L 412.917969 396.820312 L 412.164062 396.871094 L 406.742188 316.160156 Z M 407.496094 316.113281 "/>
<path style=" stroke:none;fill-rule:nonzero;fill:rgb(18.431373%,18.039216%,25.490196%);fill-opacity:1;" d="M 475.84375 316.109375 L 476.597656 316.160156 L 471.210938 396.871094 L 470.457031 396.824219 Z M 475.84375 316.109375 "/>
<g clip-path="url(#clip2)" clip-rule="nonzero">
<path style=" stroke:none;fill-rule:nonzero;fill:rgb(18.431373%,18.039216%,25.490196%);fill-opacity:1;" d="M 157.644531 464.386719 L 554.773438 464.386719 L 554.773438 465.253906 L 157.644531 465.253906 Z M 157.644531 464.386719 "/>
</g>
<path style=" stroke:none;fill-rule:nonzero;fill:rgb(62.745098%,38.039216%,41.568627%);fill-opacity:1;" d="M 290.875 168.808594 C 290.875 168.808594 284.394531 186.808594 288.382812 189.578125 C 292.367188 192.347656 274.925781 214.96875 274.925781 214.96875 L 253.992188 209.429688 L 265.453125 190.503906 C 265.453125 190.503906 266.949219 171.578125 266.949219 168.808594 C 266.949219 166.039062 290.875 168.808594 290.875 168.808594 Z M 290.875 168.808594 "/>
<g clip-path="url(#clip3)" clip-rule="nonzero">
<use xlink:href="#surface5" mask="url(#mask0)"/>
</g>
<path style=" stroke:none;fill-rule:nonzero;fill:rgb(18.431373%,18.039216%,25.490196%);fill-opacity:1;" d="M 301.75 297.132812 C 301.75 297.132812 303.640625 320.214844 301.75 332.214844 C 299.859375 344.21875 297.019531 377.453125 297.019531 377.453125 C 297.019531 377.453125 297.019531 440.230469 286.617188 441.15625 C 276.214844 442.078125 268.648438 443 267.703125 439.308594 C 266.757812 435.617188 272.433594 433.769531 269.597656 431.921875 C 266.757812 430.078125 265.8125 423.613281 269.597656 416.226562 C 273.378906 408.84375 269.597656 334.0625 269.597656 334.0625 L 251.628906 381.144531 C 251.628906 381.144531 249.734375 419.921875 247.84375 425.460938 C 245.953125 431 249.734375 441.15625 243.117188 442.078125 C 236.496094 443 228.929688 437.460938 225.148438 435.617188 C 221.363281 433.769531 230.820312 433.769531 228.929688 432.847656 C 227.039062 431.921875 221.367188 429.152344 223.257812 428.230469 C 225.148438 427.308594 227.039062 382.992188 227.039062 382.992188 C 227.039062 382.992188 232.242188 288.363281 238.859375 284.671875 C 245.480469 280.976562 249.734375 287.339844 249.734375 287.339844 Z M 301.75 297.132812 "/>
<g clip-path="url(#clip5)" clip-rule="nonzero">
<path style=" stroke:none;fill-rule:nonzero;fill:rgb(18.431373%,18.039216%,25.490196%);fill-opacity:1;" d="M 284.726562 437.460938 L 284.726562 444.847656 C 284.726562 444.847656 293.238281 464.925781 284.726562 464.925781 C 276.214844 464.925781 269.597656 467.003906 269.597656 464.234375 L 269.597656 439.308594 Z M 284.726562 437.460938 "/>
</g>
<g clip-path="url(#clip6)" clip-rule="nonzero">
<path style=" stroke:none;fill-rule:nonzero;fill:rgb(18.431373%,18.039216%,25.490196%);fill-opacity:1;" d="M 228.929688 437.449219 L 228.929688 444.835938 C 228.929688 444.835938 220.417969 464.910156 228.929688 464.910156 C 237.441406 464.910156 244.0625 466.992188 244.0625 464.222656 L 244.0625 439.296875 Z M 228.929688 437.449219 "/>
</g>
<path style=" stroke:none;fill-rule:nonzero;fill:rgb(62.745098%,38.039216%,41.568627%);fill-opacity:1;" d="M 277.632812 182.195312 C 268.234375 182.195312 260.613281 174.753906 260.613281 165.574219 C 260.613281 156.398438 268.234375 148.957031 277.632812 148.957031 C 287.035156 148.957031 294.65625 156.398438 294.65625 165.574219 C 294.65625 174.753906 287.035156 182.195312 277.632812 182.195312 Z M 277.632812 182.195312 "/>
<path style=" stroke:none;fill-rule:nonzero;fill:rgb(42.352941%,38.823529%,100%);fill-opacity:1;" d="M 282.835938 196.503906 C 282.835938 196.503906 278.105469 210.351562 270.542969 207.582031 L 262.976562 204.8125 L 249.734375 293.441406 C 249.734375 293.441406 260.140625 308.210938 275.269531 298.980469 C 290.402344 289.75 282.835938 196.503906 282.835938 196.503906 Z M 282.835938 196.503906 "/>
<path style=" stroke:none;fill-rule:nonzero;fill:rgb(24.705882%,23.921569%,33.72549%);fill-opacity:1;" d="M 269.597656 193.734375 L 265.339844 184.964844 C 265.339844 184.964844 240.277344 196.503906 236.496094 200.195312 C 232.714844 203.890625 232.714844 209.429688 232.714844 209.429688 L 239.332031 232.507812 C 239.332031 232.507812 237.441406 283.285156 237.441406 285.132812 C 237.441406 286.976562 230.820312 297.132812 235.550781 293.441406 C 240.277344 289.75 241.226562 286.054688 245.007812 291.59375 C 248.789062 297.132812 257.300781 303.597656 257.300781 303.597656 Z M 269.597656 193.734375 "/>
<path style=" stroke:none;fill-rule:nonzero;fill:rgb(62.745098%,38.039216%,41.568627%);fill-opacity:1;" d="M 236.496094 260.207031 L 239.332031 286.054688 C 239.332031 286.054688 256.355469 300.828125 252.574219 301.75 C 248.789062 302.671875 246.898438 298.980469 246.898438 298.980469 C 246.898438 298.980469 240.277344 305.441406 236.496094 301.75 C 232.714844 298.058594 223.257812 262.976562 223.257812 262.976562 Z M 236.496094 260.207031 "/>
<g clip-path="url(#clip7)" clip-rule="nonzero">
<path style=" stroke:none;fill-rule:nonzero;fill:rgb(18.431373%,18.039216%,25.490196%);fill-opacity:1;" d="M 277.269531 142.089844 C 281.042969 141.957031 285.082031 141.894531 288.265625 143.878906 C 289.730469 144.875 291.011719 146.101562 292.066406 147.511719 C 295.164062 151.335938 297.839844 156.144531 296.691406 160.890625 L 295.351562 160.382812 C 295.351562 161.648438 295.640625 162.898438 296.195312 164.042969 C 296.007812 163.507812 295.378906 164.375 295.546875 164.914062 L 297.019531 169.628906 C 294.597656 168.761719 291.585938 170.519531 291.21875 173.007812 C 291.050781 167.53125 290.46875 161.25 285.917969 158.042969 C 283.621094 156.421875 280.714844 155.929688 277.921875 155.492188 C 275.339844 155.085938 272.636719 154.699219 270.167969 155.53125 C 267.695312 156.359375 265.59375 158.824219 266.152344 161.316406 C 265.015625 160.933594 263.742188 161.707031 263.179688 162.746094 C 262.617188 163.785156 262.585938 165.011719 262.570312 166.1875 C 261.355469 167.027344 259.972656 165.363281 259.476562 163.996094 C 258.316406 160.78125 257.285156 157.363281 257.910156 154.011719 C 258.535156 150.660156 261.332031 147.457031 264.824219 147.445312 C 264.398438 146.992188 264.171875 146.394531 264.191406 145.78125 L 267.070312 145.542969 C 266.339844 145.441406 265.667969 145.097656 265.167969 144.566406 C 266.324219 145.804688 275.402344 142.15625 277.269531 142.089844 Z M 277.269531 142.089844 "/>
</g>
<path style=" stroke:none;fill-rule:nonzero;fill:rgb(24.705882%,23.921569%,33.72549%);fill-opacity:1;" d="M 278.105469 190.964844 C 278.105469 190.964844 285.804688 183.597656 288.574219 184.050781 C 291.347656 184.5 295.128906 190.964844 295.128906 190.964844 C 295.128906 190.964844 317.824219 198.351562 316.878906 205.734375 C 315.933594 213.121094 305.53125 249.125 305.53125 249.125 C 305.53125 249.125 297.019531 292.519531 304.585938 297.132812 C 312.152344 301.75 268.648438 313.75 267.703125 308.210938 C 266.757812 302.671875 264.867188 247.28125 267.703125 238.972656 C 270.542969 230.664062 278.105469 190.964844 278.105469 190.964844 Z M 278.105469 190.964844 "/>
<path style=" stroke:none;fill-rule:nonzero;fill:rgb(24.705882%,23.921569%,33.72549%);fill-opacity:1;" d="M 245.007812 205.734375 L 233.3125 205.734375 C 233.3125 205.734375 225.148438 240.816406 224.203125 244.511719 C 223.257812 248.203125 221.363281 265.746094 222.3125 265.746094 C 223.257812 265.746094 242.171875 262.050781 242.171875 264.820312 Z M 245.007812 205.734375 "/>
<path style=" stroke:none;fill-rule:nonzero;fill:rgb(94.901961%,94.901961%,94.901961%);fill-opacity:1;" d="M 245.402344 292.609375 L 290.167969 292.609375 C 294.539062 272.992188 294.902344 254.039062 290.167969 235.929688 L 245.402344 235.929688 C 252.628906 253.710938 253.078125 272.535156 245.402344 292.609375 Z M 245.402344 292.609375 "/>
<path style=" stroke:none;fill-rule:nonzero;fill:rgb(62.745098%,38.039216%,41.568627%);fill-opacity:1;" d="M 308.367188 268.515625 L 295.128906 274.054688 C 295.128906 274.054688 269.597656 277.746094 269.597656 267.589844 C 269.597656 257.4375 295.128906 262.976562 295.128906 262.976562 L 303.640625 260.320312 Z M 308.367188 268.515625 "/>
<path style=" stroke:none;fill-rule:nonzero;fill:rgb(24.705882%,23.921569%,33.72549%);fill-opacity:1;" d="M 305.53125 200.195312 L 316.878906 202.964844 L 325.390625 251.898438 C 325.390625 251.898438 328.226562 264.820312 323.5 265.746094 C 318.769531 266.667969 305.53125 274.054688 305.53125 274.054688 C 305.53125 274.054688 303.640625 260.207031 299.859375 260.207031 L 309.316406 252.820312 L 303.640625 220.507812 Z M 305.53125 200.195312 "/>
<path style=" stroke:none;fill-rule:nonzero;fill:rgb(94.901961%,94.901961%,94.901961%);fill-opacity:1;" d="M 466.019531 294.734375 L 528.070312 294.734375 L 528.070312 295.597656 L 466.019531 295.597656 Z M 466.019531 294.734375 "/>
<path style=" stroke:none;fill-rule:nonzero;fill:rgb(94.901961%,94.901961%,94.901961%);fill-opacity:1;" d="M 510.34375 286.945312 L 511.230469 286.945312 L 511.230469 294.949219 L 510.34375 294.949219 Z M 510.34375 286.945312 "/>
<path style=" stroke:none;fill-rule:nonzero;fill:rgb(94.901961%,94.901961%,94.901961%);fill-opacity:1;" d="M 483.304688 286.945312 L 484.191406 286.945312 L 484.191406 294.949219 L 483.304688 294.949219 Z M 483.304688 286.945312 "/>
<path style=" stroke:none;fill-rule:nonzero;fill:rgb(94.901961%,94.901961%,94.901961%);fill-opacity:1;" d="M 444.300781 166.65625 L 506.351562 166.65625 L 506.351562 167.523438 L 444.300781 167.523438 Z M 444.300781 166.65625 "/>
<path style=" stroke:none;fill-rule:nonzero;fill:rgb(94.901961%,94.901961%,94.901961%);fill-opacity:1;" d="M 461.144531 167.304688 L 462.03125 167.304688 L 462.03125 175.3125 L 461.144531 175.3125 Z M 461.144531 167.304688 "/>
<path style=" stroke:none;fill-rule:nonzero;fill:rgb(94.901961%,94.901961%,94.901961%);fill-opacity:1;" d="M 488.179688 167.304688 L 489.066406 167.304688 L 489.066406 175.3125 L 488.179688 175.3125 Z M 488.179688 167.304688 "/>
<path style=" stroke:none;fill-rule:nonzero;fill:rgb(94.901961%,94.901961%,94.901961%);fill-opacity:1;" d="M 381.808594 251.898438 L 443.859375 251.898438 L 443.859375 252.761719 L 381.808594 252.761719 Z M 381.808594 251.898438 "/>
<path style=" stroke:none;fill-rule:nonzero;fill:rgb(94.901961%,94.901961%,94.901961%);fill-opacity:1;" d="M 398.648438 252.546875 L 399.535156 252.546875 L 399.535156 260.550781 L 398.648438 260.550781 Z M 398.648438 252.546875 "/>
<path style=" stroke:none;fill-rule:nonzero;fill:rgb(94.901961%,94.901961%,94.901961%);fill-opacity:1;" d="M 425.6875 252.546875 L 426.574219 252.546875 L 426.574219 260.550781 L 425.6875 260.550781 Z M 425.6875 252.546875 "/>
<path style=" stroke:none;fill-rule:nonzero;fill:rgb(94.901961%,94.901961%,94.901961%);fill-opacity:1;" d="M 487.292969 251.464844 L 549.347656 251.464844 L 549.347656 252.332031 L 487.292969 252.332031 Z M 487.292969 251.464844 "/>
<path style=" stroke:none;fill-rule:nonzero;fill:rgb(94.901961%,94.901961%,94.901961%);fill-opacity:1;" d="M 504.136719 252.113281 L 505.023438 252.113281 L 505.023438 260.121094 L 504.136719 260.121094 Z M 504.136719 252.113281 "/>
<path style=" stroke:none;fill-rule:nonzero;fill:rgb(94.901961%,94.901961%,94.901961%);fill-opacity:1;" d="M 531.175781 252.113281 L 532.058594 252.113281 L 532.058594 260.121094 L 531.175781 260.121094 Z M 531.175781 252.113281 "/>
<path style=" stroke:none;fill-rule:nonzero;fill:rgb(94.901961%,94.901961%,94.901961%);fill-opacity:1;" d="M 412.832031 208.195312 L 474.882812 208.195312 L 474.882812 209.0625 L 412.832031 209.0625 Z M 412.832031 208.195312 "/>
<path style=" stroke:none;fill-rule:nonzero;fill:rgb(94.901961%,94.901961%,94.901961%);fill-opacity:1;" d="M 457.15625 200.40625 L 458.042969 200.40625 L 458.042969 208.414062 L 457.15625 208.414062 Z M 457.15625 200.40625 "/>
<path style=" stroke:none;fill-rule:nonzero;fill:rgb(94.901961%,94.901961%,94.901961%);fill-opacity:1;" d="M 430.117188 200.40625 L 431.003906 200.40625 L 431.003906 208.414062 L 430.117188 208.414062 Z M 430.117188 200.40625 "/>
</g>
</svg>
