<svg width="1900" height="934" viewBox="0 0 1344 934" fill="none" xmlns="http://www.w3.org/2000/svg">
<rect width="1343" height="779" rx="30" fill="#043A7B"/>
<path d="M703 751H1344V904C1344 920.569 1330.57 934 1314 934H703V751Z" fill="#043A7B"/>
<path d="M1 783C1 780.791 2.79086 779 5 779H706C708.209 779 710 780.791 710 783V930C710 932.209 708.209 934 706 934H5.00001C2.79087 934 1 932.209 1 930V783Z" fill="#FCFCFC"/>
<path d="M705.27 778.52C594.64 766.101 251.428 778.52 382.332 778.52C513.236 778.52 539.334 923.156 705.27 933.498C871.207 943.841 815.9 790.939 705.27 778.52Z" fill="#043A7B"/>
<ellipse cx="438.5" cy="199" rx="82.5" ry="82" fill="#26487C"/>
<ellipse cx="308" cy="317.5" rx="48" ry="47.5" fill="#26487C"/>
<ellipse cx="450.5" cy="187" rx="65.5" ry="65" fill="#28304A"/>
<ellipse cx="450.5" cy="187" rx="65.5" ry="65" fill="#28304A"/>
<ellipse cx="882" cy="837.5" rx="45" ry="46.5" fill="#28304A"/>
<circle cx="934" cy="817" r="20" fill="#C9CBD1"/>
<ellipse cx="432" cy="344.5" rx="28" ry="27.5" fill="#28304A"/>
<circle cx="440" cy="333" r="6" fill="white"/>
<path d="M484 187.5C484 191.642 480.866 195 477 195C473.134 195 470 191.642 470 187.5C470 183.358 473.134 180 477 180C480.866 180 484 183.358 484 187.5Z" fill="white" fill-opacity="0.7"/>
<circle cx="486.5" cy="175.5" r="3.5" fill="white" fill-opacity="0.5"/>
<path d="M486 156C486 168.703 475.703 179 463 179C450.297 179 440 168.703 440 156C440 143.297 450.297 133 463 133C475.703 133 486 143.297 486 156Z" fill="white" fill-opacity="0.5"/>
<path d="M486 156C486 168.703 475.703 179 463 179C450.297 179 440 168.703 440 156C440 143.297 450.297 133 463 133C475.703 133 486 143.297 486 156Z" fill="white" fill-opacity="0.5"/>
<path d="M460 156C460 161.523 455.523 166 450 166C444.477 166 440 161.523 440 156C440 150.477 444.477 146 450 146C455.523 146 460 150.477 460 156Z" fill="white" fill-opacity="0.5"/>
<path d="M971.338 813.343C966.303 815.613 960.382 813.373 958.111 808.338C955.841 803.303 958.081 797.382 963.116 795.111C968.15 792.841 974.072 795.081 976.343 800.116C978.613 805.15 976.373 811.072 971.338 813.343Z" fill="white" fill-opacity="0.5"/>
<path d="M878.646 854.71C880.453 890.449 851.838 920.941 814.731 922.818C777.625 924.694 746.079 897.244 744.272 861.505C742.465 825.767 771.081 795.274 808.187 793.397C845.293 791.521 876.839 818.972 878.646 854.71Z" fill="white" fill-opacity="0.3"/>
<path d="M631.197 301.756C505.822 330.062 307.283 529.997 563.715 711.489C820.148 892.982 941.615 532.746 1001 780.236C1060.38 1027.73 1532.32 674.53 1133.26 398.002C1204.98 265.061 1170.5 194.941 1001 76.2648C917.587 54.4733 869.271 34.4084 814.748 158.761C660.517 140.012 618.232 169.426 631.197 301.756Z" fill="#28304A"/>
<path d="M692.144 274.259C579.85 302.741 402.026 503.919 631.703 686.541C861.38 869.162 970.173 506.686 1023.36 755.715C1076.55 1004.74 1499.24 649.352 1141.83 371.104C1206.06 237.336 1175.18 166.78 1023.36 47.366C948.653 25.4389 905.377 5.24926 856.544 130.376C718.404 111.509 680.531 141.106 692.144 274.259Z" fill="#207FF2" fill-opacity="0.3"/>
<g clip-path="url(#clip0_80_465)">
<path d="M581.886 637.426C574.09 651.539 557.545 657.598 557.545 657.598C557.545 657.598 553.64 640.774 561.435 626.661C569.231 612.547 585.775 606.489 585.775 606.489C585.775 606.489 589.681 623.312 581.886 637.426Z" fill="#2F2E41"/>
<path d="M576.528 632.783C562.454 641.049 557.033 657.468 557.033 657.468C557.033 657.468 574.431 660.484 588.506 652.218C602.58 643.952 608 627.533 608 627.533C608 627.533 590.602 624.516 576.528 632.783Z" fill="#6C63FF"/>
<path d="M260.985 222.987H348.797V224.212H260.985V222.987Z" fill="#F2F2F2"/>
<path d="M284.82 223.906H286.074V235.234H284.82V223.906Z" fill="#F2F2F2"/>
<path d="M323.081 223.906H324.335V235.234H323.081V223.906Z" fill="#F2F2F2"/>
<path d="M216.451 281.77H304.264V282.995H216.451V281.77Z" fill="#F2F2F2"/>
<path d="M279.174 270.748H280.429V282.076H279.174V270.748Z" fill="#F2F2F2"/>
<path d="M240.913 270.748H242.168V282.076H240.913V270.748Z" fill="#F2F2F2"/>
<path d="M99.7861 309.325H187.599V310.549H99.7861V309.325Z" fill="#F2F2F2"/>
<path d="M162.509 298.303H163.764V309.631H162.509V298.303Z" fill="#F2F2F2"/>
<path d="M124.248 298.303H125.503V309.631H124.248V298.303Z" fill="#F2F2F2"/>
<path d="M108.567 593.442H196.38V594.667H108.567V593.442Z" fill="#F2F2F2"/>
<path d="M171.291 582.421H172.545V593.749H171.291V582.421Z" fill="#F2F2F2"/>
<path d="M133.029 582.421H134.284V593.749H133.029V582.421Z" fill="#F2F2F2"/>
<path d="M258.476 396.887H346.288V398.111H258.476V396.887Z" fill="#F2F2F2"/>
<path d="M321.199 385.865H322.453V397.193H321.199V385.865Z" fill="#F2F2F2"/>
<path d="M282.938 385.865H284.192V397.193H282.938V385.865Z" fill="#F2F2F2"/>
<path d="M230.878 544.457H318.69V545.681H230.878V544.457Z" fill="#F2F2F2"/>
<path d="M293.601 533.435H294.855V544.763H293.601V533.435Z" fill="#F2F2F2"/>
<path d="M255.34 533.435H256.594V544.763H255.34V533.435Z" fill="#F2F2F2"/>
<path d="M90.3777 499.757H178.19V500.982H90.3777V499.757Z" fill="#F2F2F2"/>
<path d="M153.101 488.735H154.355V500.063H153.101V488.735Z" fill="#F2F2F2"/>
<path d="M114.84 488.735H116.094V500.063H114.84V488.735Z" fill="#F2F2F2"/>
<path d="M380.904 630.963H529.424V629.92H381.973V579.33H516.938L523.495 565.996L522.531 565.544L516.266 578.287H380.904V630.963Z" fill="#2F2E41"/>
<path d="M509.657 656.519C503.461 656.519 498.438 651.616 498.438 645.567C498.438 639.518 503.461 634.614 509.657 634.614C515.853 634.614 520.876 639.518 520.876 645.567C520.876 651.616 515.853 656.519 509.657 656.519Z" fill="#3F3D56"/>
<path d="M399.069 656.519C392.872 656.519 387.849 651.616 387.849 645.567C387.849 639.518 392.872 634.614 399.069 634.614C405.265 634.614 410.288 639.518 410.288 645.567C410.288 651.616 405.265 656.519 399.069 656.519Z" fill="#3F3D56"/>
<path d="M268.713 419.737C264.877 419.737 261.768 416.702 261.768 412.957C261.768 409.213 264.877 406.177 268.713 406.177C272.549 406.177 275.658 409.213 275.658 412.957C275.658 416.702 272.549 419.737 268.713 419.737Z" fill="#3F3D56"/>
<path d="M365.019 562.119H531.956L568.078 446.858H327.82L328.039 447.536L365.019 562.119ZM531.166 561.076H365.803L329.277 447.901H566.634L531.166 561.076Z" fill="#2F2E41"/>
<path d="M378.05 556.121H524.677L556.404 453.898H345.377L345.569 454.5L378.05 556.121Z" fill="#F2F2F2"/>
<path d="M324.827 436.561L325.86 436.293L318.809 410.35H277.795V411.393H317.987L324.827 436.561Z" fill="#2F2E41"/>
<path d="M339.826 481.801H556.405V482.844H339.826V481.801Z" fill="#2F2E41"/>
<path d="M352.229 520.231H544.362V521.274H352.229V520.231Z" fill="#2F2E41"/>
<path d="M447.418 447.379H448.486V561.598H447.418V447.379Z" fill="#2F2E41"/>
<path d="M399.58 447.347L407.25 561.562L406.183 561.631L398.513 447.415L399.58 447.347Z" fill="#2F2E41"/>
<path d="M496.302 447.345L497.369 447.413L489.743 561.632L488.677 561.564L496.302 447.345Z" fill="#2F2E41"/>
<path d="M46 657.18H608V658.405H46V657.18Z" fill="#2F2E41"/>
<path d="M234.539 238.888C234.539 238.888 225.37 264.364 231.013 268.284C236.655 272.203 211.969 304.212 211.969 304.212L182.346 296.373L198.568 269.59C198.568 269.59 200.684 242.807 200.684 238.888C200.684 234.969 234.539 238.888 234.539 238.888Z" fill="#A0616A"/>
<path opacity="0.1" d="M234.539 238.888C234.539 238.888 225.37 264.364 231.013 268.284C236.655 272.203 211.969 304.212 211.969 304.212L182.346 296.373L198.568 269.59C198.568 269.59 200.684 242.807 200.684 238.888C200.684 234.969 234.539 238.888 234.539 238.888Z" fill="black"/>
<path d="M249.93 420.49C249.93 420.49 252.606 453.152 249.93 470.136C247.253 487.12 243.238 534.154 243.238 534.154C243.238 534.154 243.238 622.995 228.517 624.301C213.796 625.608 203.089 626.914 201.751 621.688C200.413 616.462 208.443 613.849 204.428 611.236C200.413 608.624 199.075 599.478 204.428 589.026C209.781 578.574 204.428 472.749 204.428 472.749L179 539.38C179 539.38 176.323 594.252 173.647 602.091C170.97 609.93 176.323 624.301 166.955 625.608C157.587 626.914 146.881 619.075 141.528 616.462C136.175 613.849 149.558 613.849 146.881 612.543C144.204 611.236 136.175 607.317 138.851 606.011C141.528 604.704 144.204 541.993 144.204 541.993C144.204 541.993 151.565 408.078 160.933 402.852C170.301 397.626 176.323 406.627 176.323 406.627L249.93 420.49Z" fill="#2F2E41"/>
<path d="M225.84 619.075V629.527C225.84 629.527 237.885 657.939 225.84 657.939C213.796 657.939 204.428 660.883 204.428 656.964V621.688L225.84 619.075Z" fill="#2F2E41"/>
<path d="M146.881 619.057V629.509C146.881 629.509 134.836 657.92 146.881 657.92C158.925 657.92 168.294 660.864 168.294 656.945V621.67L146.881 619.057Z" fill="#2F2E41"/>
<path d="M215.803 257.832C202.499 257.832 191.714 247.303 191.714 234.315C191.714 221.327 202.499 210.799 215.803 210.799C229.107 210.799 239.893 221.327 239.893 234.315C239.893 247.303 229.107 257.832 215.803 257.832Z" fill="#A0616A"/>
<path d="M223.164 278.083C223.164 278.083 216.472 297.68 205.766 293.761L195.059 289.841L176.323 415.264C176.323 415.264 191.045 436.168 212.457 423.103C233.87 410.038 223.164 278.083 223.164 278.083Z" fill="#6C63FF"/>
<path d="M204.428 274.163L198.405 261.752C198.405 261.752 162.94 278.083 157.587 283.309C152.234 288.535 152.234 296.374 152.234 296.374L161.602 329.036C161.602 329.036 158.926 400.892 158.926 403.505C158.926 406.118 149.557 420.49 156.249 415.264C162.94 410.038 164.279 404.812 169.632 412.651C174.985 420.49 187.03 429.635 187.03 429.635L204.428 274.163Z" fill="#3F3D56"/>
<path d="M157.587 368.23L161.602 404.812C161.602 404.812 185.691 425.716 180.338 427.022C174.985 428.329 172.309 423.103 172.309 423.103C172.309 423.103 162.94 432.248 157.587 427.022C152.234 421.796 138.851 372.15 138.851 372.15L157.587 368.23Z" fill="#A0616A"/>
<path d="M215.29 201.08C220.63 200.893 226.345 200.801 230.848 203.61C232.92 205.02 234.737 206.757 236.225 208.749C240.61 214.161 244.399 220.97 242.77 227.685L240.878 226.965C240.878 228.757 241.286 230.527 242.073 232.147C241.807 231.39 240.915 232.613 241.153 233.378L243.238 240.053C239.812 238.826 235.55 241.309 235.028 244.835C234.79 237.082 233.966 228.192 227.524 223.652C224.275 221.363 220.164 220.664 216.208 220.044C212.558 219.471 208.733 218.925 205.237 220.098C201.741 221.271 198.765 224.761 199.557 228.285C197.945 227.743 196.143 228.84 195.346 230.311C194.55 231.783 194.508 233.518 194.484 235.182C192.766 236.368 190.811 234.014 190.11 232.077C188.467 227.531 187.006 222.692 187.891 217.949C188.777 213.206 192.736 208.674 197.674 208.658C197.075 208.015 196.755 207.17 196.782 206.301L200.853 205.965C199.819 205.822 198.869 205.333 198.164 204.582C199.799 206.337 212.647 201.172 215.29 201.08Z" fill="#2F2E41"/>
<path d="M216.472 270.244C216.472 270.244 227.367 259.821 231.288 260.46C235.208 261.098 240.562 270.244 240.562 270.244C240.562 270.244 272.681 280.696 271.342 291.147C270.004 301.599 255.283 352.552 255.283 352.552C255.283 352.552 243.238 413.957 253.945 420.49C264.651 427.022 203.089 444.006 201.751 436.167C200.413 428.328 197.736 349.939 201.751 338.181C205.766 326.423 216.472 270.244 216.472 270.244Z" fill="#3F3D56"/>
<path d="M169.632 291.147H153.084C153.084 291.147 141.528 340.794 140.189 346.02C138.851 351.246 136.174 376.069 137.513 376.069C138.851 376.069 165.617 370.843 165.617 374.763L169.632 291.147Z" fill="#3F3D56"/>
<path d="M170.192 414.088H233.542C239.724 386.326 240.241 359.502 233.542 333.874H170.192C180.415 359.041 181.054 385.681 170.192 414.088Z" fill="#F2F2F2"/>
<path d="M259.298 379.989L240.562 387.827C240.562 387.827 204.428 393.053 204.428 378.682C204.428 364.311 240.562 372.15 240.562 372.15L252.607 368.39L259.298 379.989Z" fill="#A0616A"/>
<path d="M255.283 283.309L271.342 287.228L283.387 356.472C283.387 356.472 287.402 374.763 280.711 376.069C274.019 377.376 255.283 387.827 255.283 387.827C255.283 387.827 252.606 368.23 247.253 368.23L260.636 357.778L252.606 312.051L255.283 283.309Z" fill="#3F3D56"/>
<path d="M482.398 417.094H570.21V418.318H482.398V417.094Z" fill="#F2F2F2"/>
<path d="M545.121 406.072H546.375V417.4H545.121V406.072Z" fill="#F2F2F2"/>
<path d="M506.86 406.072H508.114V417.4H506.86V406.072Z" fill="#F2F2F2"/>
<path d="M451.663 235.846H539.476V237.071H451.663V235.846Z" fill="#F2F2F2"/>
<path d="M475.498 236.764H476.753V248.092H475.498V236.764Z" fill="#F2F2F2"/>
<path d="M513.759 236.764H515.014V248.092H513.759V236.764Z" fill="#F2F2F2"/>
<path d="M363.224 356.474H451.036V357.698H363.224V356.474Z" fill="#F2F2F2"/>
<path d="M387.058 357.392H388.313V368.72H387.058V357.392Z" fill="#F2F2F2"/>
<path d="M425.32 357.392H426.574V368.72H425.32V357.392Z" fill="#F2F2F2"/>
<path d="M512.505 355.861H600.317V357.086H512.505V355.861Z" fill="#F2F2F2"/>
<path d="M536.34 356.78H537.594V368.108H536.34V356.78Z" fill="#F2F2F2"/>
<path d="M574.601 356.78H575.855V368.108H574.601V356.78Z" fill="#F2F2F2"/>
<path d="M407.13 294.629H494.942V295.854H407.13V294.629Z" fill="#F2F2F2"/>
<path d="M469.853 283.607H471.108V294.935H469.853V283.607Z" fill="#F2F2F2"/>
<path d="M431.592 283.607H432.846V294.935H431.592V283.607Z" fill="#F2F2F2"/>
</g>
<defs>
<clipPath id="clip0_80_465">
<rect width="562" height="458" fill="white" transform="matrix(-1 0 0 1 608 201)"/>
</clipPath>
</defs>
</svg>
